<svg width="15" height="15" viewBox="0 0 15 15" fill="none" xmlns="http://www.w3.org/2000/svg">
<g id="24 / basic / search">
<path id="icon" fill-rule="evenodd" clip-rule="evenodd" d="M6.25 11.25C3.48858 11.25 1.25 9.01142 1.25 6.25C1.25 3.48858 3.48858 1.25 6.25 1.25C9.01142 1.25 11.25 3.48858 11.25 6.25C11.25 7.40544 10.8581 8.46935 10.1999 9.31603L13.5669 12.6831L12.6831 13.5669L9.31603 10.1999C8.46935 10.8581 7.40545 11.25 6.25 11.25ZM10 6.25C10 8.32107 8.32107 10 6.25 10C4.17893 10 2.5 8.32107 2.5 6.25C2.5 4.17893 4.17893 2.5 6.25 2.5C8.32107 2.5 10 4.17893 10 6.25Z" fill="#898989"/>
</g>
</svg>
