<svg width="101" height="35" viewBox="0 0 101 35" fill="none" xmlns="http://www.w3.org/2000/svg">
<g filter="url(#filter0_b)">
<rect width="101" height="35" rx="3" fill="white" fill-opacity="0.1"/>
<rect x="0.5" y="0.5" width="100" height="34" rx="2.5" stroke="#929292"/>
</g>
<path d="M49.592 12.6V21H48.032V17.4H43.688V21H42.128V12.6H43.688V16.068H48.032V12.6H49.592ZM57.7228 17.832C57.7228 17.936 57.7148 18.084 57.6988 18.276H52.6708C52.7588 18.748 52.9868 19.124 53.3548 19.404C53.7308 19.676 54.1948 19.812 54.7468 19.812C55.4508 19.812 56.0308 19.58 56.4868 19.116L57.2908 20.04C57.0028 20.384 56.6388 20.644 56.1988 20.82C55.7588 20.996 55.2628 21.084 54.7108 21.084C54.0068 21.084 53.3868 20.944 52.8508 20.664C52.3148 20.384 51.8988 19.996 51.6028 19.5C51.3148 18.996 51.1708 18.428 51.1708 17.796C51.1708 17.172 51.3108 16.612 51.5908 16.116C51.8788 15.612 52.2748 15.22 52.7788 14.94C53.2828 14.66 53.8508 14.52 54.4828 14.52C55.1068 14.52 55.6628 14.66 56.1508 14.94C56.6468 15.212 57.0308 15.6 57.3028 16.104C57.5828 16.6 57.7228 17.176 57.7228 17.832ZM54.4828 15.72C54.0028 15.72 53.5948 15.864 53.2588 16.152C52.9308 16.432 52.7308 16.808 52.6588 17.28H56.2948C56.2308 16.816 56.0348 16.44 55.7068 16.152C55.3788 15.864 54.9708 15.72 54.4828 15.72ZM59.1637 12.096H60.6637V21H59.1637V12.096ZM66.1844 14.52C66.8084 14.52 67.3644 14.656 67.8524 14.928C68.3484 15.2 68.7364 15.584 69.0164 16.08C69.2964 16.576 69.4364 17.148 69.4364 17.796C69.4364 18.444 69.2964 19.02 69.0164 19.524C68.7364 20.02 68.3484 20.404 67.8524 20.676C67.3644 20.948 66.8084 21.084 66.1844 21.084C65.3204 21.084 64.6364 20.796 64.1324 20.22V23.328H62.6324V14.592H64.0604V15.432C64.3084 15.128 64.6124 14.9 64.9724 14.748C65.3404 14.596 65.7444 14.52 66.1844 14.52ZM66.0164 19.8C66.5684 19.8 67.0204 19.616 67.3724 19.248C67.7324 18.88 67.9124 18.396 67.9124 17.796C67.9124 17.196 67.7324 16.712 67.3724 16.344C67.0204 15.976 66.5684 15.792 66.0164 15.792C65.6564 15.792 65.3324 15.876 65.0444 16.044C64.7564 16.204 64.5284 16.436 64.3604 16.74C64.1924 17.044 64.1084 17.396 64.1084 17.796C64.1084 18.196 64.1924 18.548 64.3604 18.852C64.5284 19.156 64.7564 19.392 65.0444 19.56C65.3324 19.72 65.6564 19.8 66.0164 19.8Z" fill="white"/>
<path fill-rule="evenodd" clip-rule="evenodd" d="M15.6667 17C15.6667 21.0501 18.9499 24.3333 23 24.3333C27.0501 24.3333 30.3333 21.0501 30.3333 17C30.3333 12.9499 27.0501 9.66667 23 9.66667C18.9499 9.66667 15.6667 12.9499 15.6667 17ZM29 17C29 20.3137 26.3137 23 23 23C19.6863 23 17 20.3137 17 17C17 13.6863 19.6863 11 23 11C26.3137 11 29 13.6863 29 17ZM23.0002 20.3322C23.3685 20.3322 23.6671 20.0338 23.6671 19.6656C23.6671 19.2974 23.3685 18.9989 23.0002 18.9989C22.6319 18.9989 22.3333 19.2974 22.3333 19.6656C22.3333 20.0338 22.6319 20.3322 23.0002 20.3322ZM22.3333 18.3333H23.6667C23.6667 17.8011 23.7503 17.7036 24.2981 17.4296C25.2503 16.9536 25.6667 16.4678 25.6667 15.3333C25.6667 13.8804 24.5229 13 23 13C21.5272 13 20.3333 14.1939 20.3333 15.6667H21.6667C21.6667 14.9303 22.2636 14.3333 23 14.3333C23.8514 14.3333 24.3333 14.7043 24.3333 15.3333C24.3333 15.8656 24.2497 15.9631 23.7018 16.2371C22.7497 16.7131 22.3333 17.1989 22.3333 18.3333Z" fill="white"/>
<defs>
<filter id="filter0_b" x="-15" y="-15" width="131" height="65" filterUnits="userSpaceOnUse" color-interpolation-filters="sRGB">
<feFlood flood-opacity="0" result="BackgroundImageFix"/>
<feGaussianBlur in="BackgroundImage" stdDeviation="7.5"/>
<feComposite in2="SourceAlpha" operator="in" result="effect1_backgroundBlur"/>
<feBlend mode="normal" in="SourceGraphic" in2="effect1_backgroundBlur" result="shape"/>
</filter>
</defs>
</svg>
