<svg width="143" height="35" viewBox="0 0 143 35" fill="none" xmlns="http://www.w3.org/2000/svg">
<g filter="url(#filter0_b)">
<rect width="143" height="35" rx="3" fill="white" fill-opacity="0.1"/>
<rect x="0.5" y="0.5" width="142" height="34" rx="2.5" stroke="#929292"/>
</g>
<path d="M46.8947 12.6V21H45.6107L40.9787 15.312V21H39.4307V12.6H40.7147L45.3467 18.288V12.6H46.8947ZM51.8816 21.084C51.2336 21.084 50.6496 20.944 50.1296 20.664C49.6096 20.384 49.2016 19.996 48.9056 19.5C48.6176 18.996 48.4736 18.428 48.4736 17.796C48.4736 17.164 48.6176 16.6 48.9056 16.104C49.2016 15.608 49.6096 15.22 50.1296 14.94C50.6496 14.66 51.2336 14.52 51.8816 14.52C52.5376 14.52 53.1256 14.66 53.6456 14.94C54.1656 15.22 54.5696 15.608 54.8576 16.104C55.1536 16.6 55.3016 17.164 55.3016 17.796C55.3016 18.428 55.1536 18.996 54.8576 19.5C54.5696 19.996 54.1656 20.384 53.6456 20.664C53.1256 20.944 52.5376 21.084 51.8816 21.084ZM51.8816 19.8C52.4336 19.8 52.8896 19.616 53.2496 19.248C53.6096 18.88 53.7896 18.396 53.7896 17.796C53.7896 17.196 53.6096 16.712 53.2496 16.344C52.8896 15.976 52.4336 15.792 51.8816 15.792C51.3296 15.792 50.8736 15.976 50.5136 16.344C50.1616 16.712 49.9856 17.196 49.9856 17.796C49.9856 18.396 50.1616 18.88 50.5136 19.248C50.8736 19.616 51.3296 19.8 51.8816 19.8ZM64.824 14.52C65.632 14.52 66.272 14.756 66.744 15.228C67.216 15.692 67.452 16.392 67.452 17.328V21H65.952V17.52C65.952 16.96 65.828 16.54 65.58 16.26C65.332 15.972 64.976 15.828 64.512 15.828C64.008 15.828 63.604 15.996 63.3 16.332C62.996 16.66 62.844 17.132 62.844 17.748V21H61.344V17.52C61.344 16.96 61.22 16.54 60.972 16.26C60.724 15.972 60.368 15.828 59.904 15.828C59.392 15.828 58.984 15.992 58.68 16.32C58.384 16.648 58.236 17.124 58.236 17.748V21H56.736V14.592H58.164V15.408C58.404 15.12 58.704 14.9 59.064 14.748C59.424 14.596 59.824 14.52 60.264 14.52C60.744 14.52 61.168 14.612 61.536 14.796C61.912 14.972 62.208 15.236 62.424 15.588C62.688 15.252 63.028 14.992 63.444 14.808C63.86 14.616 64.32 14.52 64.824 14.52ZM69.3688 14.592H70.8688V21H69.3688V14.592ZM70.1248 13.536C69.8528 13.536 69.6248 13.452 69.4408 13.284C69.2568 13.108 69.1648 12.892 69.1648 12.636C69.1648 12.38 69.2568 12.168 69.4408 12C69.6248 11.824 69.8528 11.736 70.1248 11.736C70.3968 11.736 70.6248 11.82 70.8088 11.988C70.9928 12.148 71.0848 12.352 71.0848 12.6C71.0848 12.864 70.9928 13.088 70.8088 13.272C70.6328 13.448 70.4048 13.536 70.1248 13.536ZM76.4735 14.52C77.2815 14.52 77.9295 14.756 78.4175 15.228C78.9055 15.7 79.1495 16.4 79.1495 17.328V21H77.6495V17.52C77.6495 16.96 77.5175 16.54 77.2535 16.26C76.9895 15.972 76.6135 15.828 76.1255 15.828C75.5735 15.828 75.1375 15.996 74.8175 16.332C74.4975 16.66 74.3375 17.136 74.3375 17.76V21H72.8375V14.592H74.2655V15.42C74.5135 15.124 74.8255 14.9 75.2015 14.748C75.5775 14.596 76.0015 14.52 76.4735 14.52ZM83.5004 14.52C84.4444 14.52 85.1644 14.748 85.6604 15.204C86.1644 15.652 86.4164 16.332 86.4164 17.244V21H85.0004V20.22C84.8164 20.5 84.5524 20.716 84.2084 20.868C83.8724 21.012 83.4644 21.084 82.9844 21.084C82.5044 21.084 82.0844 21.004 81.7244 20.844C81.3644 20.676 81.0844 20.448 80.8844 20.16C80.6924 19.864 80.5964 19.532 80.5964 19.164C80.5964 18.588 80.8084 18.128 81.2324 17.784C81.6644 17.432 82.3404 17.256 83.2604 17.256H84.9164V17.16C84.9164 16.712 84.7804 16.368 84.5084 16.128C84.2444 15.888 83.8484 15.768 83.3204 15.768C82.9604 15.768 82.6044 15.824 82.2524 15.936C81.9084 16.048 81.6164 16.204 81.3764 16.404L80.7884 15.312C81.1244 15.056 81.5284 14.86 82.0004 14.724C82.4724 14.588 82.9724 14.52 83.5004 14.52ZM83.2964 19.992C83.6724 19.992 84.0044 19.908 84.2924 19.74C84.5884 19.564 84.7964 19.316 84.9164 18.996V18.252H83.3684C82.5044 18.252 82.0724 18.536 82.0724 19.104C82.0724 19.376 82.1804 19.592 82.3964 19.752C82.6124 19.912 82.9124 19.992 83.2964 19.992ZM92.1934 20.652C92.0174 20.796 91.8014 20.904 91.5454 20.976C91.2974 21.048 91.0334 21.084 90.7534 21.084C90.0494 21.084 89.5054 20.9 89.1214 20.532C88.7374 20.164 88.5454 19.628 88.5454 18.924V15.84H87.4894V14.64H88.5454V13.176H90.0454V14.64H91.7614V15.84H90.0454V18.888C90.0454 19.2 90.1214 19.44 90.2734 19.608C90.4254 19.768 90.6454 19.848 90.9334 19.848C91.2694 19.848 91.5494 19.76 91.7734 19.584L92.1934 20.652ZM99.2404 17.832C99.2404 17.936 99.2324 18.084 99.2164 18.276H94.1884C94.2764 18.748 94.5044 19.124 94.8724 19.404C95.2484 19.676 95.7124 19.812 96.2644 19.812C96.9684 19.812 97.5484 19.58 98.0044 19.116L98.8084 20.04C98.5204 20.384 98.1564 20.644 97.7164 20.82C97.2764 20.996 96.7804 21.084 96.2284 21.084C95.5244 21.084 94.9044 20.944 94.3684 20.664C93.8324 20.384 93.4164 19.996 93.1204 19.5C92.8324 18.996 92.6884 18.428 92.6884 17.796C92.6884 17.172 92.8284 16.612 93.1084 16.116C93.3964 15.612 93.7924 15.22 94.2964 14.94C94.8004 14.66 95.3684 14.52 96.0004 14.52C96.6244 14.52 97.1804 14.66 97.6684 14.94C98.1644 15.212 98.5484 15.6 98.8204 16.104C99.1004 16.6 99.2404 17.176 99.2404 17.832ZM96.0004 15.72C95.5204 15.72 95.1124 15.864 94.7764 16.152C94.4484 16.432 94.2484 16.808 94.1764 17.28H97.8124C97.7484 16.816 97.5524 16.44 97.2244 16.152C96.8964 15.864 96.4884 15.72 96.0004 15.72Z" fill="white"/>
<defs>
<filter id="filter0_b" x="-15" y="-15" width="173" height="65" filterUnits="userSpaceOnUse" color-interpolation-filters="sRGB">
<feFlood flood-opacity="0" result="BackgroundImageFix"/>
<feGaussianBlur in="BackgroundImage" stdDeviation="7.5"/>
<feComposite in2="SourceAlpha" operator="in" result="effect1_backgroundBlur"/>
<feBlend mode="normal" in="SourceGraphic" in2="effect1_backgroundBlur" result="shape"/>
</filter>
</defs>
</svg>
