<svg width="168" height="26" viewBox="0 0 168 26" fill="none" xmlns="http://www.w3.org/2000/svg">
<path d="M33.456 21H36.264L38.856 7.272H43.368L43.848 4.824H32.064L31.584 7.272H36.048L33.456 21ZM45.3343 21L46.3903 15.432C46.8463 12.96 48.4063 11.328 49.7503 11.328C50.8063 11.328 51.2143 12.024 51.2143 12.912C51.2143 13.488 51.1423 13.992 51.0703 14.448L49.8223 21H52.6063L53.8783 14.232C53.9983 13.608 54.0943 12.792 54.0943 12.192C54.0943 10.032 52.7743 9.048 51.1663 9.048C49.5343 9.048 48.2383 9.84 47.2543 11.064H47.2063L48.5743 3.96H45.7903L42.5503 21H45.3343ZM64.6496 18.288C63.8096 18.72 62.7536 19.056 61.4336 19.056C60.3296 19.056 59.4896 18.648 59.0336 17.856C58.7696 17.4 58.6736 16.608 58.7216 16.2C63.2336 16.296 66.3776 15.336 66.3776 12.336C66.3776 10.368 64.9136 9.048 62.6096 9.048C58.5776 9.048 55.9856 12.888 55.9856 16.416C55.9856 19.272 57.5456 21.264 60.7856 21.264C62.2016 21.264 63.7616 20.928 64.9136 20.328L64.6496 18.288ZM63.7376 12.336C63.7376 13.752 61.8896 14.136 59.0096 14.112C59.3456 12.696 60.4976 11.136 62.2496 11.136C63.1376 11.136 63.7376 11.592 63.7376 12.336ZM71.2528 20.112C71.9728 20.664 73.5808 21.216 75.5488 21.24C79.1488 21.24 81.7888 19.248 81.7888 16.008C81.7888 14.04 80.6128 12.744 78.6448 11.712C77.1328 10.872 76.2208 10.2 76.2208 9.096C76.2208 8.016 77.2288 6.984 79.0288 6.984C80.3248 6.96 81.4048 7.416 81.9328 7.704L82.8448 5.4C82.2208 5.016 81.0448 4.584 79.2448 4.584C75.9808 4.584 73.2928 6.504 73.2928 9.6C73.2928 11.544 74.7088 12.816 76.5808 13.824C78.1408 14.664 78.8368 15.384 78.8368 16.44C78.8368 18 77.4208 18.84 75.8608 18.84C74.4208 18.84 73.1248 18.408 72.2128 17.808L71.2528 20.112ZM86.1624 21L87.2184 15.432C87.6744 12.96 89.2344 11.328 90.5784 11.328C91.6344 11.328 92.0424 12.024 92.0424 12.912C92.0424 13.488 91.9704 13.992 91.8984 14.448L90.6504 21H93.4344L94.7064 14.232C94.8264 13.608 94.9224 12.792 94.9224 12.192C94.9224 10.032 93.6024 9.048 91.9944 9.048C90.3624 9.048 89.0664 9.84 88.0824 11.064H88.0344L89.4024 3.96H86.6184L83.3784 21H86.1624ZM103.606 9.048C99.6217 9.048 96.8618 12.48 96.8618 16.44C96.8618 19.224 98.6858 21.264 101.638 21.264C105.622 21.264 108.382 17.856 108.382 13.872C108.382 11.304 106.75 9.048 103.606 9.048ZM103.27 11.208C104.95 11.208 105.502 12.696 105.502 13.896C105.502 16.224 104.11 19.104 102.022 19.104C100.582 19.104 99.7418 17.976 99.7418 16.368C99.7418 14.184 101.038 11.208 103.27 11.208ZM111.405 25.752L112.365 20.76H112.413C112.821 21 113.661 21.264 114.741 21.264C118.725 21.264 121.533 17.472 121.533 13.368C121.533 11.088 120.381 9.048 117.837 9.048C116.349 9.072 114.885 9.864 113.901 11.232H113.853L114.117 9.264H111.597C111.429 10.44 111.165 12.264 110.925 13.656L108.621 25.752H111.405ZM113.301 15.648C113.805 12.912 115.341 11.328 116.757 11.328C118.149 11.328 118.605 12.528 118.605 13.584C118.605 16.224 116.853 19.104 114.669 19.104C113.877 19.104 113.253 18.888 112.797 18.504L113.301 15.648ZM124.483 25.752L125.443 20.76H125.491C125.899 21 126.739 21.264 127.819 21.264C131.803 21.264 134.611 17.472 134.611 13.368C134.611 11.088 133.459 9.048 130.915 9.048C129.427 9.072 127.963 9.864 126.979 11.232H126.931L127.195 9.264H124.675C124.507 10.44 124.243 12.264 124.003 13.656L121.699 25.752H124.483ZM126.379 15.648C126.883 12.912 128.419 11.328 129.835 11.328C131.227 11.328 131.683 12.528 131.683 13.584C131.683 16.224 129.931 19.104 127.747 19.104C126.955 19.104 126.331 18.888 125.875 18.504L126.379 15.648ZM138.545 21L140.777 9.312H137.993L135.761 21H138.545ZM139.841 7.632C140.801 7.632 141.569 6.984 141.593 5.952C141.593 5.064 140.993 4.464 140.105 4.464C139.193 4.464 138.425 5.16 138.425 6.144C138.425 7.032 139.001 7.632 139.841 7.632ZM150.642 18.288C149.802 18.72 148.746 19.056 147.426 19.056C146.322 19.056 145.482 18.648 145.026 17.856C144.762 17.4 144.666 16.608 144.714 16.2C149.226 16.296 152.37 15.336 152.37 12.336C152.37 10.368 150.906 9.048 148.602 9.048C144.57 9.048 141.978 12.888 141.978 16.416C141.978 19.272 143.538 21.264 146.778 21.264C148.194 21.264 149.754 20.928 150.906 20.328L150.642 18.288ZM149.73 12.336C149.73 13.752 147.882 14.136 145.002 14.112C145.338 12.696 146.49 11.136 148.242 11.136C149.13 11.136 149.73 11.592 149.73 12.336ZM152.79 20.4C153.414 20.856 154.686 21.24 156.054 21.264C158.862 21.288 161.022 19.848 161.022 17.256C161.022 15.768 159.894 14.808 158.598 14.112C157.59 13.608 157.086 13.152 157.086 12.48C157.086 11.688 157.806 11.136 158.862 11.136C159.822 11.136 160.59 11.424 161.046 11.664L161.742 9.648C161.238 9.336 160.23 9.048 159.006 9.048C156.246 9.048 154.278 10.632 154.278 12.888C154.278 14.232 155.238 15.216 156.582 15.936C157.734 16.536 158.118 17.016 158.118 17.736C158.118 18.528 157.446 19.176 156.318 19.176C155.262 19.176 154.11 18.744 153.51 18.408L152.79 20.4Z" fill="white"/>
<g clip-path="url(#clip0)">
<path d="M20.1434 4.99117C20.1224 4.86587 20.0173 4.78233 19.9123 4.78233C19.8073 4.78233 17.9589 4.74057 17.9589 4.74057C17.9589 4.74057 16.4046 3.23695 16.2575 3.09077C16.1105 2.94458 15.7954 2.98635 15.6904 3.02812C15.6904 3.02812 15.3963 3.11165 14.9132 3.25783C14.8292 2.98635 14.7032 2.6731 14.5352 2.33896C13.989 1.29478 13.1699 0.730927 12.2036 0.730927C12.1406 0.730927 12.0776 0.730927 11.9936 0.75181C11.9726 0.710043 11.9306 0.68916 11.9096 0.647392C11.4895 0.187955 10.9434 -0.0208807 10.2922 2.85516e-06C9.03196 0.0417699 7.77168 0.939762 6.76346 2.54779C6.04931 3.67551 5.50319 5.09559 5.33515 6.20241C3.88584 6.64097 2.87762 6.95422 2.85661 6.9751C2.12145 7.20482 2.10045 7.22571 2.01643 7.91486C1.95342 8.43695 0.0209961 23.1598 0.0209961 23.1598L16.0685 25.9165L23.021 24.204C23 24.1831 20.1644 5.11647 20.1434 4.99117ZM14.1151 3.50844C13.737 3.61285 13.3169 3.75904 12.8758 3.88434C12.8758 3.25783 12.7918 2.35984 12.4977 1.60804C13.4429 1.79599 13.905 2.86105 14.1151 3.50844ZM12.0146 4.15583C11.1744 4.40643 10.2502 4.6988 9.32602 4.97028C9.57807 3.98876 10.0822 3.00723 10.6703 2.35984C10.9014 2.13012 11.2164 1.85864 11.5735 1.69157C11.9516 2.42249 12.0356 3.44579 12.0146 4.15583ZM10.3132 0.835344C10.6073 0.835344 10.8594 0.897995 11.0694 1.0233C10.7333 1.21125 10.3973 1.46185 10.0822 1.79599C9.28401 2.65221 8.67488 3.98876 8.42282 5.26265C7.66666 5.49237 6.91049 5.72209 6.21734 5.93093C6.65844 3.92611 8.35981 0.897995 10.3132 0.835344Z" fill="#95BF47"/>
<path d="M19.9123 4.78234C19.8073 4.78234 17.9589 4.74058 17.9589 4.74058C17.9589 4.74058 16.4046 3.23696 16.2575 3.09078C16.1945 3.02813 16.1315 3.00724 16.0475 2.98636V25.8956L23 24.1831C23 24.1831 20.1644 5.11648 20.1434 4.97029C20.1224 4.86588 20.0173 4.78234 19.9123 4.78234Z" fill="#5E8E3E"/>
<path d="M12.1826 8.33254L11.3845 11.3398C11.3845 11.3398 10.4813 10.9221 9.41004 11.0056C7.83469 11.11 7.83469 12.0916 7.83469 12.3422C7.91871 13.6787 11.4685 13.9711 11.6785 17.1245C11.8256 19.6096 10.3552 21.3012 8.23378 21.4265C5.67122 21.5936 4.26392 20.09 4.26392 20.09L4.81003 17.7928C4.81003 17.7928 6.21734 18.8578 7.35159 18.7743C8.08675 18.7325 8.35981 18.1269 8.3388 17.7092C8.23378 15.955 5.33515 16.0594 5.14611 13.1775C4.99908 10.755 6.59542 8.29077 10.1242 8.08194C11.4895 7.97752 12.1826 8.33254 12.1826 8.33254Z" fill="white"/>
</g>
<defs>
<clipPath id="clip0">
<rect width="23" height="26" fill="white"/>
</clipPath>
</defs>
</svg>
