<svg width="16" height="16" viewBox="0 0 16 16" fill="none" xmlns="http://www.w3.org/2000/svg">
<g id="24 / notifications / question-circle">
<path id="icon" fill-rule="evenodd" clip-rule="evenodd" d="M0.666656 8C0.666656 12.0501 3.9499 15.3333 7.99999 15.3333C12.0501 15.3333 15.3333 12.0501 15.3333 8C15.3333 3.94992 12.0501 0.666672 7.99999 0.666672C3.9499 0.666672 0.666656 3.94992 0.666656 8ZM14 8.00001C14 11.3137 11.3137 14 7.99999 14C4.68628 14 1.99999 11.3137 1.99999 8.00001C1.99999 4.6863 4.68628 2.00001 7.99999 2.00001C11.3137 2.00001 14 4.6863 14 8.00001ZM8.00021 11.3322C8.36852 11.3322 8.66709 11.0338 8.66709 10.6656C8.66709 10.2974 8.36852 9.9989 8.00021 9.9989C7.6319 9.9989 7.33332 10.2974 7.33332 10.6656C7.33332 11.0338 7.6319 11.3322 8.00021 11.3322ZM7.33332 9.33334H8.66666C8.66666 8.8011 8.75027 8.70355 9.29813 8.42962C10.2503 7.95355 10.6667 7.46777 10.6667 6.33334C10.6667 4.88042 9.52289 4.00001 7.99999 4.00001C6.52723 4.00001 5.33332 5.19391 5.33332 6.66667H6.66666C6.66666 5.93029 7.26361 5.33334 7.99999 5.33334C8.85143 5.33334 9.33332 5.70428 9.33332 6.33334C9.33332 6.86557 9.24971 6.96312 8.70185 7.23705C7.74971 7.71312 7.33332 8.19891 7.33332 9.33334Z" fill="white"/>
</g>
</svg>
